<svg width="20" height="6" viewBox="0 0 20 6" fill="none" xmlns="http://www.w3.org/2000/svg">
<path d="M15.3064 5.37743H14.2358L15.7247 -4.29153e-05H16.7954L15.3064 5.37743Z" fill="#212530"/>
<path d="M14.7506 0.170026C14.6764 0.0677003 14.5619 0.016066 14.4064 0.016066H8.51914L8.22755 1.0693H9.29877V1.06869H13.5833L13.2716 2.19421H8.98696L8.98735 2.19187H7.91657L7.02785 5.40026H8.09918L8.69559 3.24683H13.5118C13.6622 3.24683 13.8038 3.19553 13.9369 3.09292C14.0698 2.99021 14.1572 2.86357 14.1992 2.71233L14.7955 0.55845C14.839 0.402159 14.824 0.272461 14.7506 0.170026Z" fill="#212530"/>
<path d="M6.404 5.04175C6.34487 5.25467 6.15099 5.40197 5.92996 5.40197H0.40613C0.255613 5.40197 0.143738 5.35067 0.0701732 5.24818C-0.00333647 5.14557 -0.0191043 5.01865 0.022925 4.86747L1.37075 0.015665H2.44236L1.2385 4.34907H5.52505L6.7289 0.015665H7.80029L6.404 5.04175Z" fill="#212530"/>
<path d="M18.6445 0.0100584L20 2.70576L17.1505 5.40075L18.6445 0.0100584Z" fill="#212530"/>
<path d="M17.6943 0.0100584L19.0488 2.70576L16.1982 5.40075L17.6943 0.0100584Z" fill="#212530"/>
</svg>
