<svg width="62" height="61" viewBox="0 0 62 61" fill="none" xmlns="http://www.w3.org/2000/svg">
<g filter="url(#filter0_d_6_348)">
<path d="M36.8965 40.5H24.5974C24.0537 40.5 23.5323 40.284 23.1479 39.8996C22.7635 39.5152 22.5475 38.9938 22.5475 38.4501V30.2507H21.1809C21.0441 30.2503 20.9105 30.2087 20.7976 30.1314C20.6846 30.0542 20.5974 29.9448 20.5474 29.8174C20.4973 29.69 20.4866 29.5506 20.5168 29.4171C20.5469 29.2836 20.6164 29.1622 20.7163 29.0686L29.3804 21.0469C29.7594 20.6953 30.2573 20.5 30.7743 20.5C31.2912 20.5 31.7891 20.6953 32.1682 21.0469L40.7775 29.0686C40.8775 29.1622 40.947 29.2836 40.9771 29.4171C41.0072 29.5506 40.9966 29.69 40.9465 29.8174C40.8964 29.9448 40.8093 30.0542 40.6963 30.1314C40.5833 30.2087 40.4498 30.2503 40.3129 30.2507H38.9463V38.4501C38.9463 38.9938 38.7304 39.5152 38.346 39.8996C37.9615 40.284 37.4401 40.5 36.8965 40.5ZM22.9233 28.8842H23.2308C23.412 28.8842 23.5858 28.9561 23.7139 29.0843C23.8421 29.2124 23.9141 29.3862 23.9141 29.5674V38.4501C23.9141 38.6314 23.9861 38.8052 24.1142 38.9333C24.2423 39.0614 24.4161 39.1334 24.5974 39.1334H36.8965C37.0777 39.1334 37.2515 39.0614 37.3796 38.9333C37.5078 38.8052 37.5798 38.6314 37.5798 38.4501V29.5674C37.5798 29.3862 37.6518 29.2124 37.7799 29.0843C37.908 28.9561 38.0818 28.8842 38.2631 28.8842H38.5705L31.2116 22.0513C31.0852 21.9341 30.9192 21.869 30.7469 21.869C30.5746 21.869 30.4086 21.9341 30.2823 22.0513L22.9233 28.8842Z" fill="#FF8412"/>
<path d="M36.8965 40.5H24.5974C24.0537 40.5 23.5323 40.284 23.1479 39.8996C22.7635 39.5152 22.5475 38.9938 22.5475 38.4501V30.2507H21.1809C21.0441 30.2503 20.9105 30.2087 20.7976 30.1314C20.6846 30.0542 20.5974 29.9448 20.5474 29.8174C20.4973 29.69 20.4866 29.5506 20.5168 29.4171C20.5469 29.2836 20.6164 29.1622 20.7163 29.0686L29.3804 21.0469C29.7594 20.6953 30.2573 20.5 30.7743 20.5C31.2912 20.5 31.7891 20.6953 32.1682 21.0469L40.7775 29.0686C40.8775 29.1622 40.947 29.2836 40.9771 29.4171C41.0072 29.5506 40.9966 29.69 40.9465 29.8174C40.8964 29.9448 40.8093 30.0542 40.6963 30.1314C40.5833 30.2087 40.4498 30.2503 40.3129 30.2507H38.9463V38.4501C38.9463 38.9938 38.7304 39.5152 38.346 39.8996C37.9615 40.284 37.4401 40.5 36.8965 40.5ZM22.9233 28.8842H23.2308C23.412 28.8842 23.5858 28.9561 23.7139 29.0843C23.8421 29.2124 23.9141 29.3862 23.9141 29.5674V38.4501C23.9141 38.6314 23.9861 38.8052 24.1142 38.9333C24.2423 39.0614 24.4161 39.1334 24.5974 39.1334H36.8965C37.0777 39.1334 37.2515 39.0614 37.3796 38.9333C37.5078 38.8052 37.5798 38.6314 37.5798 38.4501V29.5674C37.5798 29.3862 37.6518 29.2124 37.7799 29.0843C37.908 28.9561 38.0818 28.8842 38.2631 28.8842H38.5705L31.2116 22.0513C31.0852 21.9341 30.9192 21.869 30.7469 21.869C30.5746 21.869 30.4086 21.9341 30.2823 22.0513L22.9233 28.8842Z" stroke="#FF8412"/>
</g>
<defs>
<filter id="filter0_d_6_348" x="0" y="0" width="61.4938" height="61" filterUnits="userSpaceOnUse" color-interpolation-filters="sRGB">
<feFlood flood-opacity="0" result="BackgroundImageFix"/>
<feColorMatrix in="SourceAlpha" type="matrix" values="0 0 0 0 0 0 0 0 0 0 0 0 0 0 0 0 0 0 127 0" result="hardAlpha"/>
<feOffset/>
<feGaussianBlur stdDeviation="10"/>
<feComposite in2="hardAlpha" operator="out"/>
<feColorMatrix type="matrix" values="0 0 0 0 0.878431 0 0 0 0 0.588235 0 0 0 0 0.356863 0 0 0 1 0"/>
<feBlend mode="normal" in2="BackgroundImageFix" result="effect1_dropShadow_6_348"/>
<feBlend mode="normal" in="SourceGraphic" in2="effect1_dropShadow_6_348" result="shape"/>
</filter>
</defs>
</svg>
