<svg width="21" height="20" viewBox="0 0 21 20" fill="none" xmlns="http://www.w3.org/2000/svg">
<path d="M17.5721 11.0318C17.3507 11.0318 17.1192 10.9614 16.8977 10.9111C16.4493 10.8122 16.0086 10.6811 15.5792 10.5185C15.1122 10.3486 14.599 10.3575 14.1381 10.5433C13.6773 10.7291 13.3015 11.0788 13.083 11.525L12.8616 11.978C11.8812 11.4326 10.9803 10.7553 10.1842 9.96493C9.39385 9.16878 8.71651 8.26792 8.17115 7.28757L8.59389 7.00574C9.04015 6.78724 9.38983 6.41142 9.57565 5.95059C9.76147 5.48976 9.77029 4.9765 9.60042 4.50956C9.4406 4.07919 9.30947 3.63871 9.20787 3.19101C9.15754 2.96957 9.11728 2.73807 9.08709 2.50657C8.96486 1.79759 8.59351 1.15555 8.03992 0.69607C7.48633 0.236588 6.78687 -0.0101396 6.06751 0.000319374H3.04793C2.61415 -0.00375357 2.18458 0.0856863 1.78847 0.26255C1.39236 0.439414 1.03901 0.699549 0.752477 1.02525C0.465939 1.35094 0.252942 1.73456 0.127985 2.14997C0.00302833 2.56539 -0.0309542 3.00285 0.028351 3.43257C0.564566 7.6493 2.49034 11.5672 5.50149 14.5674C8.51264 17.5676 12.4375 19.4791 16.6562 20H17.0386C17.7809 20.0011 18.4975 19.7288 19.0517 19.235C19.3701 18.9502 19.6245 18.6011 19.798 18.2107C19.9715 17.8203 20.0602 17.3976 20.0582 16.9704V13.9508C20.0459 13.2516 19.7913 12.5784 19.3379 12.0461C18.8845 11.5138 18.2604 11.1553 17.5721 11.0318ZM18.0754 17.071C18.0752 17.2139 18.0446 17.3552 17.9856 17.4853C17.9266 17.6155 17.8405 17.7316 17.7331 17.8259C17.621 17.9235 17.4895 17.9964 17.3473 18.0398C17.2051 18.0831 17.0553 18.096 16.9078 18.0775C13.1383 17.5942 9.63689 15.8697 6.95599 13.176C4.27508 10.4824 2.56722 6.97287 2.1018 3.20107C2.08578 3.05363 2.09981 2.90448 2.14306 2.76262C2.18631 2.62076 2.25788 2.48914 2.35343 2.37572C2.44775 2.26836 2.56385 2.18231 2.69401 2.1233C2.82418 2.0643 2.96541 2.03368 3.10832 2.0335H6.1279C6.36196 2.02829 6.59052 2.10484 6.77423 2.24998C6.95795 2.39511 7.08532 2.59974 7.13443 2.82866C7.17469 3.10378 7.22501 3.37554 7.28541 3.64394C7.40168 4.17453 7.55642 4.69594 7.74841 5.20406L6.33927 5.8583C6.21879 5.91358 6.11041 5.99212 6.02036 6.0894C5.93031 6.18668 5.86037 6.30079 5.81454 6.42517C5.76871 6.54956 5.74791 6.68177 5.75332 6.81422C5.75873 6.94667 5.79025 7.07675 5.84607 7.19698C7.29467 10.2999 9.78888 12.7941 12.8918 14.2427C13.1368 14.3433 13.4117 14.3433 13.6567 14.2427C13.7822 14.1978 13.8976 14.1284 13.9961 14.0385C14.0946 13.9487 14.1742 13.8402 14.2304 13.7193L14.8545 12.3101C15.3748 12.4962 15.9059 12.6508 16.4448 12.7731C16.7132 12.8335 16.985 12.8839 17.2601 12.9241C17.489 12.9732 17.6936 13.1006 17.8388 13.2843C17.9839 13.468 18.0604 13.6966 18.0552 13.9306L18.0754 17.071Z" fill="white"/>
</svg>
