<svg width="30" height="30" viewBox="0 0 30 30" fill="none" xmlns="http://www.w3.org/2000/svg">
<path fill-rule="evenodd" clip-rule="evenodd" d="M28.9987 16.2612C28.7535 18.9144 27.7578 21.443 26.1279 23.551C24.4981 25.6589 22.3017 27.2592 19.7956 28.1644C17.2895 29.0696 14.5774 29.2424 11.9767 28.6625C9.37602 28.0826 6.99425 26.774 5.11012 24.8899C3.22599 23.0057 1.91742 20.624 1.33753 18.0233C0.757632 15.4226 0.930401 12.7105 1.83562 10.2044C2.74084 7.69834 4.34106 5.50188 6.44904 3.87207C8.55703 2.24225 11.0856 1.24648 13.7388 1.00129C12.1854 3.10286 11.4379 5.69218 11.6323 8.2983C11.8266 10.9044 12.9499 13.3542 14.7978 15.2022C16.6458 17.0501 19.0956 18.1734 21.7017 18.3677C24.3078 18.5621 26.8971 17.8146 28.9987 16.2612V16.2612Z" stroke="white" stroke-width="2" stroke-linecap="round" stroke-linejoin="round"/>
</svg>
