<svg width="25" height="25" viewBox="0 0 25 25" fill="none" xmlns="http://www.w3.org/2000/svg">
<path d="M23.4375 10.8932H21.875C21.8203 10.8932 21.775 10.9197 21.7203 10.9243C21.4907 9.52047 20.9395 8.18818 20.1094 7.03078C20.1484 6.9981 20.1969 6.98565 20.2344 6.9483L21.3391 5.84809C21.95 5.23963 21.95 4.25613 21.3391 3.64766C20.7281 3.0392 19.7391 3.0392 19.1297 3.64766L18.0234 4.74632C17.9875 4.78211 17.9734 4.83191 17.9406 4.87082C16.779 4.04319 15.4411 3.4941 14.0313 3.2664C14.0359 3.21194 14.0625 3.16681 14.0625 3.11234V1.55617C14.0625 1.14345 13.8979 0.74763 13.6049 0.455792C13.3118 0.163953 12.9144 0 12.5 0C12.0856 0 11.6882 0.163953 11.3951 0.455792C11.1021 0.74763 10.9375 1.14345 10.9375 1.55617V3.11234C10.9375 3.16681 10.9641 3.21194 10.9688 3.2664C9.55892 3.4941 8.22099 4.04319 7.05938 4.87082C7.02656 4.83191 7.0125 4.78367 6.97656 4.74632L5.87187 3.64611C5.72681 3.50152 5.55456 3.38681 5.36498 3.30853C5.1754 3.23024 4.97219 3.18991 4.76696 3.18984C4.56173 3.18976 4.35849 3.22995 4.16885 3.3081C3.97922 3.38626 3.80689 3.50085 3.66172 3.64533C3.51655 3.78981 3.40137 3.96136 3.32276 4.15017C3.24416 4.33899 3.20366 4.54137 3.20359 4.74577C3.20352 4.95017 3.24387 5.15259 3.32234 5.34145C3.40081 5.53032 3.51587 5.70195 3.66094 5.84653L4.76719 6.94675C4.80312 6.98409 4.85 6.9981 4.89063 7.03078C4.0599 8.18783 3.5086 9.52028 3.27969 10.9243C3.225 10.9197 3.17969 10.8932 3.125 10.8932H1.5625C1.1481 10.8932 0.750671 11.0571 0.457646 11.349C0.16462 11.6408 0 12.0366 0 12.4494C0 12.8621 0.16462 13.2579 0.457646 13.5497C0.750671 13.8416 1.1481 14.0055 1.5625 14.0055H3.125C3.17969 14.0055 3.225 13.9806 3.27969 13.9744C3.50929 15.3783 4.06052 16.7106 4.89063 17.868C4.85156 17.9006 4.80312 17.9131 4.76719 17.9504L3.66094 19.0506C3.51587 19.1952 3.40081 19.3669 3.32234 19.5557C3.24387 19.7446 3.20352 19.947 3.20359 20.1514C3.20366 20.3558 3.24416 20.5582 3.32276 20.747C3.40137 20.9358 3.51655 21.1074 3.66172 21.2518C3.80689 21.3963 3.97922 21.5109 4.16885 21.5891C4.35849 21.6672 4.56173 21.7074 4.76696 21.7073C4.97219 21.7073 5.1754 21.6669 5.36498 21.5886C5.55456 21.5104 5.72681 21.3957 5.87187 21.2511L6.97656 20.1509C7.0125 20.1151 7.02656 20.0653 7.05938 20.0264C8.22124 20.8538 9.55901 21.4034 10.9688 21.6323C10.9641 21.6868 10.9375 21.7319 10.9375 21.7864V23.3426C10.9375 24.2031 11.6359 24.8987 12.5 24.8987C13.3641 24.8987 14.0625 24.2031 14.0625 23.3426V21.7864C14.0625 21.7319 14.0359 21.6868 14.0313 21.6323C15.4409 21.4031 16.7786 20.8536 17.9406 20.0264C17.9734 20.0653 17.9859 20.1151 18.0234 20.1509L19.1297 21.2511C19.2747 21.3957 19.4469 21.5105 19.6364 21.5888C19.826 21.667 20.0292 21.7073 20.2344 21.7073C20.4396 21.7073 20.6428 21.667 20.8323 21.5888C21.0219 21.5105 21.1941 21.3957 21.3391 21.2511C21.4843 21.1067 21.5995 20.9352 21.6781 20.7464C21.7567 20.5576 21.7972 20.3552 21.7972 20.1509C21.7972 19.9465 21.7567 19.7441 21.6781 19.5553C21.5995 19.3665 21.4843 19.195 21.3391 19.0506L20.2344 17.9504C20.1969 17.9146 20.1484 17.9022 20.1094 17.868C20.9395 16.7106 21.4907 15.3783 21.7203 13.9744C21.775 13.9806 21.8203 14.0055 21.875 14.0055H23.4375C23.8519 14.0055 24.2493 13.8416 24.5424 13.5497C24.8354 13.2579 25 12.8621 25 12.4494C25 12.0366 24.8354 11.6408 24.5424 11.349C24.2493 11.0571 23.8519 10.8932 23.4375 10.8932ZM12.5 18.674C9.04844 18.674 6.25 15.8869 6.25 12.4494C6.25 9.01179 9.04844 6.22468 12.5 6.22468C15.9516 6.22468 18.75 9.01179 18.75 12.4494C18.75 15.8869 15.9516 18.674 12.5 18.674Z" fill="#211F2B"/>
</svg>
