<svg width="68" height="51" viewBox="0 0 68 51" fill="none" xmlns="http://www.w3.org/2000/svg">
<g filter="url(#filter0_dd_6_88)">
<path d="M51.0588 5H16.9412C13.7742 5 10.7369 5.88934 8.49749 7.47236C6.25809 9.05539 5 11.2024 5 13.4412V37.5588C5 39.7976 6.25809 41.9446 8.49749 43.5276C10.7369 45.1107 13.7742 46 16.9412 46H51.0588C54.2258 46 57.2631 45.1107 59.5025 43.5276C61.7419 41.9446 63 39.7976 63 37.5588V13.4412C63 11.2024 61.7419 9.05539 59.5025 7.47236C57.2631 5.88934 54.2258 5 51.0588 5ZM28.8824 9.82353H39.1176V17.0588H28.8824V9.82353ZM22.0588 41.1765H16.9412C15.5839 41.1765 14.2822 40.7953 13.3225 40.1169C12.3627 39.4384 11.8235 38.5183 11.8235 37.5588V33.9412H22.0588V41.1765ZM39.1176 41.1765H28.8824V33.9412H39.1176V41.1765ZM56.1765 37.5588C56.1765 38.5183 55.6373 39.4384 54.6775 40.1169C53.7178 40.7953 52.4161 41.1765 51.0588 41.1765H45.9412V33.9412H56.1765V37.5588ZM56.1765 29.1176H11.8235V13.4412C11.8235 12.4817 12.3627 11.5616 13.3225 10.8831C14.2822 10.2047 15.5839 9.82353 16.9412 9.82353H22.0588V19.4706C22.0588 20.1102 22.4183 20.7237 23.0581 21.176C23.6979 21.6283 24.5657 21.8824 25.4706 21.8824H56.1765V29.1176ZM56.1765 17.0588H45.9412V9.82353H51.0588C52.4161 9.82353 53.7178 10.2047 54.6775 10.8831C55.6373 11.5616 56.1765 12.4817 56.1765 13.4412V17.0588Z" fill="#EAEAF4"/>
</g>
<defs>
<filter id="filter0_dd_6_88" x="0" y="0" width="68" height="51" filterUnits="userSpaceOnUse" color-interpolation-filters="sRGB">
<feFlood flood-opacity="0" result="BackgroundImageFix"/>
<feColorMatrix in="SourceAlpha" type="matrix" values="0 0 0 0 0 0 0 0 0 0 0 0 0 0 0 0 0 0 127 0" result="hardAlpha"/>
<feOffset dx="1" dy="1"/>
<feGaussianBlur stdDeviation="2"/>
<feComposite in2="hardAlpha" operator="out"/>
<feColorMatrix type="matrix" values="0 0 0 0 0.248635 0 0 0 0 0.226903 0 0 0 0 0.516667 0 0 0 1 0"/>
<feBlend mode="normal" in2="BackgroundImageFix" result="effect1_dropShadow_6_88"/>
<feColorMatrix in="SourceAlpha" type="matrix" values="0 0 0 0 0 0 0 0 0 0 0 0 0 0 0 0 0 0 127 0" result="hardAlpha"/>
<feOffset dx="-1" dy="-1"/>
<feGaussianBlur stdDeviation="2"/>
<feComposite in2="hardAlpha" operator="out"/>
<feColorMatrix type="matrix" values="0 0 0 0 0.454699 0 0 0 0 0.430785 0 0 0 0 0.741667 0 0 0 1 0"/>
<feBlend mode="normal" in2="effect1_dropShadow_6_88" result="effect2_dropShadow_6_88"/>
<feBlend mode="normal" in="SourceGraphic" in2="effect2_dropShadow_6_88" result="shape"/>
</filter>
</defs>
</svg>
