<svg width="23" height="20" viewBox="0 0 23 20" fill="none" xmlns="http://www.w3.org/2000/svg">
<path d="M21.4265 8.57241H4.48529L9.67052 2.34442C9.91298 2.05271 10.0296 1.67663 9.9948 1.29892C9.95998 0.921202 9.77653 0.57279 9.48482 0.330329C9.19311 0.0878684 8.81703 -0.0287805 8.43931 0.00604443C8.0616 0.0408693 7.71318 0.224315 7.47072 0.516026L0.32854 9.08664C0.280489 9.15482 0.237519 9.22643 0.199981 9.30091C0.199981 9.37233 0.199981 9.41519 0.0999908 9.48661C0.0352448 9.65039 0.00134433 9.82473 0 10.0008C0.00134433 10.177 0.0352448 10.3513 0.0999908 10.5151C0.0999908 10.5865 0.0999904 10.6294 0.199981 10.7008C0.237519 10.7753 0.280489 10.8469 0.32854 10.915L7.47072 19.4857C7.60503 19.6469 7.77321 19.7766 7.96331 19.8655C8.15342 19.9543 8.36077 20.0002 8.57062 19.9999C8.90438 20.0006 9.22783 19.8843 9.48482 19.6714C9.62946 19.5514 9.74902 19.4042 9.83666 19.238C9.9243 19.0718 9.97829 18.8899 9.99554 18.7028C10.0128 18.5157 9.99296 18.3271 9.93718 18.1477C9.88141 17.9683 9.79079 17.8016 9.67052 17.6573L4.48529 11.4293H21.4265C21.8054 11.4293 22.1687 11.2788 22.4366 11.0109C22.7045 10.743 22.855 10.3797 22.855 10.0008C22.855 9.622 22.7045 9.25867 22.4366 8.99079C22.1687 8.7229 21.8054 8.57241 21.4265 8.57241Z" fill="#211F2B"/>
</svg>
