<svg width="15" height="7" viewBox="0 0 15 7" fill="none" xmlns="http://www.w3.org/2000/svg">
<path d="M5.88162e-05 5.83853C-0.00044955 5.68911 0.0325287 5.54147 0.0965689 5.40647C0.160609 5.27146 0.254085 5.15252 0.370126 5.05839L6.3712 0.227527C6.55016 0.080419 6.77465 -1.57999e-06 7.00631 -1.52935e-06C7.23798 -1.47872e-06 7.46246 0.0804192 7.64143 0.227527L13.6425 5.22842C13.8468 5.39819 13.9752 5.64215 13.9996 5.90662C14.024 6.17109 13.9423 6.43442 13.7725 6.63867C13.6028 6.84293 13.3588 6.97137 13.0943 6.99576C12.8298 7.02014 12.5665 6.93847 12.3623 6.7687L7.00131 2.2979L1.64035 6.61867C1.49354 6.74097 1.31477 6.81866 1.12519 6.84255C0.935603 6.86643 0.743144 6.83551 0.570586 6.75344C0.398027 6.67137 0.25259 6.54158 0.151482 6.37945C0.0503731 6.21731 -0.00217322 6.0296 5.88162e-05 5.83853Z" fill="#211F2B"/>
</svg>
