<svg width="7" height="15" viewBox="0 0 7 15" fill="none" xmlns="http://www.w3.org/2000/svg">
<path d="M1.16144 9.01052e-05C1.31087 -0.000418283 1.4585 0.0325601 1.59351 0.0966006C1.72851 0.160641 1.84745 0.254117 1.94159 0.370159L6.77247 6.37126C6.91958 6.55022 7 6.77471 7 7.00637C7 7.23804 6.91958 7.46252 6.77247 7.64149L1.77155 13.6426C1.60178 13.8468 1.35783 13.9753 1.09335 13.9997C0.82888 14.0241 0.56555 13.9424 0.361297 13.7726C0.157043 13.6028 0.028595 13.3589 0.00421085 13.0944C-0.0201733 12.8299 0.0615029 12.5666 0.231273 12.3624L4.70209 7.00137L0.381302 1.64039C0.258996 1.49358 0.181305 1.3148 0.157421 1.12522C0.133537 0.935638 0.16446 0.743178 0.246531 0.57062C0.328602 0.398061 0.458385 0.252623 0.620525 0.151514C0.782665 0.0504047 0.970376 -0.00214192 1.16144 9.01052e-05Z" fill="#211F2B"/>
</svg>
