<svg width="15" height="7" viewBox="0 0 15 7" fill="none" xmlns="http://www.w3.org/2000/svg">
<path d="M14.0038 1.16147C14.0043 1.31089 13.9713 1.45853 13.9072 1.59353C13.8432 1.72854 13.7497 1.84747 13.6337 1.94161L7.63262 6.77247C7.45365 6.91958 7.22917 7 6.9975 7C6.76584 7 6.54135 6.91958 6.36239 6.77247L0.361318 1.77158C0.157064 1.60181 0.0286171 1.35785 0.00423303 1.09338C-0.020151 0.828907 0.0615255 0.565578 0.231294 0.361326C0.401063 0.157073 0.645018 0.0286254 0.909492 0.00424139C1.17397 -0.0201427 1.43729 0.0615332 1.64155 0.231302L7.0025 4.7021L12.3635 0.381331C12.5103 0.259026 12.689 0.181335 12.8786 0.157451C13.0682 0.133568 13.2607 0.16449 13.4332 0.246561C13.6058 0.328631 13.7512 0.458414 13.8523 0.620554C13.9534 0.782693 14.006 0.970403 14.0038 1.16147Z" fill="#211F2B"/>
</svg>
